<?xml version="1.0" encoding="utf-8"?>
<!-- Generator: Adobe Illustrator 16.0.0, SVG Export Plug-In . SVG Version: 6.00 Build 0)  -->
<!DOCTYPE svg PUBLIC "-//W3C//DTD SVG 1.1//EN" "http://www.w3.org/Graphics/SVG/1.1/DTD/svg11.dtd">
<svg version="1.1" xmlns="http://www.w3.org/2000/svg" xmlns:xlink="http://www.w3.org/1999/xlink" x="0px" y="0px" width="407.3px"
	 height="288.7px" viewBox="0 0 407.3 288.7" style="enable-background:new 0 0 407.3 288.7;" xml:space="preserve">
<g id="Layer_1">
</g>
<g id="Layer_2">
	<path style="fill:none;stroke:#FFFFFF;stroke-miterlimit:10;" d="M132.2,135.2"/>
	<path style="fill:none;stroke:#FFFFFF;stroke-miterlimit:10;" d="M52.2,156.2"/>
	<g>
		<path style="fill:#FFFFFF;stroke:#FFFFFF;stroke-miterlimit:10;" d="M29.2,141.2c-13.2,8.6-9.5,18.3-4,20.7s17.1-1.4,31.6-7.1
			c16.1-6.4,73.5-30.1,93.3-31.1c-24.6,9.3-27,29.7-19.2,33.1c3.8,1.7,9.5,1.2,18.8-5.3c4.6-3.2,8.9-8,15.1-14.8
			c-4.5,6.8-4.8,6.6-5.7,9.7s-1.9,8.4,2.4,10.7s17.4-4.6,20.1-6c2.7,5.3,7.3,8,16,5.8c13.4-3.5,32.8-27,48-33.3
			c-2.8,1.4-19.5,12.7-20.3,23.8s11,11.7,18.7,7.8s15.3-10.7,18.6-14.2c-1.8,1.9-15.6,25.3-15.6,25.3s-28.8,11.6-42.1,19.4
			c-13.4,7.8-26.4,18.2-26.4,31.4c-0.1,13.1,9.9,16.5,22.5,9.1c19.5-11.4,44.4-54.5,46.4-58.6c17.4-7.8,47.7-21,89.5-29.6
			c19.8-4.1,36.1-4.3,42.1-0.7c6.8,4.1,4,12.4,0.8,18.9c10.2-18.5,3.4-26.6-37.1-20.7c-16.9,2.5-63.3,16.8-94.3,30.2
			c5.1-9.1,19.2-30.5,21.5-35.3c0.1-0.3-1-0.7-1-0.7c-2.8,5.8-18.5,24.2-31,25.7s-7.1-18.4,4.7-27.6s27.4-13,31,4.1l0.9-0.4
			c0.1-8.6-5.5-16.6-19.6-14.1s-46.4,32.1-52.8,34.9c-9.3,4.1-16.3,3.6-17.9-2.9c27.1-10.8,69.4-67.2,59.9-73.9
			c-5.1-3.6-26.2,16.1-33.3,23c-7.1,6.9-31.8,38.5-29.4,51c-1.5,0.9-14.5,6.3-18.3,5.1s-2.7-5.1-2.1-7.9s9.3-17.5,9.3-17.5
			s-0.8-0.5-0.9-0.5c-2.2,4.3-12,15.5-18,20.1c-4.9,3.8-12.6,7.4-16.8,6.9c-7.7-0.9-1.6-16,9.1-23.7c8.6-6.2,27.7-17.4,29.1-1.5
			c0,0.3,1,1,1.1,0.7c2.3-4.8-0.6-10.3-8-11.3s-36.2,5.7-49.2,10.5s-67.2,25.4-72,27c-8.8,3-18.3,5.9-21.7,0.7
			S21.8,147.7,29.2,141.2z M172.7,130.4 M242.9,77.4c13-2.9-28.9,59-59.1,71.2C185,136.5,232.4,80.7,242.9,77.4z M187.6,225.1
			c-16.3-22.7,54.5-55.3,57.2-56.3C234.7,188.1,198.4,240.1,187.6,225.1z"/>
		<g>
			<path style="fill:none;stroke:#FFFFFF;stroke-miterlimit:10;" d="M305.3,83.8"/>
			<polyline style="fill:none;stroke:#FFFFFF;stroke-miterlimit:10;" points="119.9,214.9 202,262.4 305.2,202.8 305.2,167.9 			"/>
			<polyline style="fill:none;stroke:#FFFFFF;stroke-miterlimit:10;" points="284.2,71.1 202.1,23.6 98.9,83.3 98.9,118.9 			"/>
			<path style="fill:none;stroke:#FFFFFF;stroke-miterlimit:10;" d="M283.8,70.5c4,0.4,7.3-0.5,10.9,2.4c3,2.4,6.4,6.5,8.6,9.6
				c-4.1-2.3-8.9-1.7-13-3.2C286.8,78,283.8,70.5,283.8,70.5z"/>
			<path style="fill:none;stroke:#FFFFFF;stroke-miterlimit:10;" d="M273.9,65.6c0.9,2.6,4.3,5.3,5,8c0.8,3.4-0.7,9.1-1.4,13.8
				c-0.8-6-3.7-5.6-5.3-9.8C270.2,72.5,273.9,65.6,273.9,65.6z"/>
			<path style="fill:none;stroke:#FFFFFF;stroke-miterlimit:10;" d="M274.4,64.5c2.6-0.5,6.8,1,9.4,0.2c3.4-1,7.5-5.2,11.2-8.2
				c-5.6,2.3-6.7-0.4-11.1,0.4C278.4,57.8,274.4,64.5,274.4,64.5z"/>
			<path style="fill:none;stroke:#FFFFFF;stroke-miterlimit:10;" d="M261.5,59.3c1.1,2.8,5.3,6,6.1,8.9c1.1,3.7-0.5,9.9-1.2,15.1
				c-1.1-6.5-4.6-6.2-6.6-10.8C257.3,66.7,261.5,59.3,261.5,59.3z"/>
			<path style="fill:none;stroke:#FFFFFF;stroke-miterlimit:10;" d="M262.5,57.6c3.1-0.5,8.1,1.3,11.2,0.5c4-1,8.7-5.5,13.1-8.6
				c-6.5,2.4-8-0.6-13.2,0.1C267.2,50.4,262.5,57.6,262.5,57.6z"/>
			<path style="fill:none;stroke:#FFFFFF;stroke-miterlimit:10;" d="M249.5,52.3c1.1,2.8,5.3,6,6.1,8.9c1.1,3.7-0.5,9.9-1.2,15.1
				c-1.1-6.5-4.6-6.2-6.6-10.8C245.3,59.7,249.5,52.3,249.5,52.3z"/>
			<path style="fill:none;stroke:#FFFFFF;stroke-miterlimit:10;" d="M250.5,50.6c3.1-0.5,8.1,1.3,11.2,0.5c4-1,8.7-5.5,13.1-8.6
				c-6.5,2.4-8-0.6-13.2,0.1C255.2,43.4,250.5,50.6,250.5,50.6z"/>
			<circle style="fill:none;stroke:#FFFFFF;stroke-miterlimit:10;" cx="305.3" cy="89.3" r="1.7"/>
			<circle style="fill:none;stroke:#FFFFFF;stroke-miterlimit:10;" cx="305.3" cy="96.9" r="1.5"/>
			<circle style="fill:none;stroke:#FFFFFF;stroke-miterlimit:10;" cx="305.3" cy="104.3" r="1.4"/>
			<path style="fill:none;stroke:#FFFFFF;stroke-miterlimit:10;" d="M120.4,215.4c-4-0.4-7.3,0.5-10.9-2.4c-3-2.4-6.4-6.5-8.6-9.6
				c4.1,2.3,8.9,1.7,13,3.2C117.3,207.9,120.4,215.4,120.4,215.4z"/>
			<path style="fill:none;stroke:#FFFFFF;stroke-miterlimit:10;" d="M130.3,220.3c-0.9-2.6-4.3-5.3-5-8c-0.8-3.4,0.7-9.1,1.4-13.8
				c0.8,6,3.7,5.6,5.3,9.8C134,213.4,130.3,220.3,130.3,220.3z"/>
			<path style="fill:none;stroke:#FFFFFF;stroke-miterlimit:10;" d="M129.8,221.4c-2.6,0.5-6.8-1-9.4-0.2c-3.4,1-7.5,5.2-11.2,8.2
				c5.6-2.3,6.7,0.4,11.1-0.4C125.7,228.1,129.8,221.4,129.8,221.4z"/>
			<path style="fill:none;stroke:#FFFFFF;stroke-miterlimit:10;" d="M142.6,226.6c-1.1-2.8-5.3-6-6.1-8.9c-1.1-3.7,0.5-9.9,1.2-15.1
				c1.2,6.5,4.6,6.2,6.6,10.8C146.8,219.2,142.6,226.6,142.6,226.6z"/>
			<path style="fill:none;stroke:#FFFFFF;stroke-miterlimit:10;" d="M141.6,228.3c-3.1,0.5-8.1-1.3-11.2-0.5c-4,1-8.7,5.5-13.1,8.6
				c6.5-2.4,8,0.6,13.2-0.1C137,235.5,141.6,228.3,141.6,228.3z"/>
			<path style="fill:none;stroke:#FFFFFF;stroke-miterlimit:10;" d="M154.6,233.6c-1.1-2.8-5.3-6-6.1-8.9c-1.1-3.7,0.5-9.9,1.2-15.1
				c1.2,6.5,4.6,6.2,6.6,10.8C158.8,226.2,154.6,233.6,154.6,233.6z"/>
			<path style="fill:none;stroke:#FFFFFF;stroke-miterlimit:10;" d="M153.6,235.3c-3.1,0.5-8.1-1.3-11.2-0.5c-4,1-8.7,5.5-13.1,8.6
				c6.5-2.4,8,0.6,13.2-0.1C149,242.5,153.6,235.3,153.6,235.3z"/>
			<circle style="fill:none;stroke:#FFFFFF;stroke-miterlimit:10;" cx="98.9" cy="196.6" r="1.7"/>
			<circle style="fill:none;stroke:#FFFFFF;stroke-miterlimit:10;" cx="98.9" cy="189" r="1.5"/>
			<circle style="fill:none;stroke:#FFFFFF;stroke-miterlimit:10;" cx="98.9" cy="181.6" r="1.4"/>
		</g>
	</g>
	<path style="fill:none;stroke:#FFFFFF;stroke-miterlimit:10;" d="M393.8,167.8"/>
	<path style="fill:none;stroke:#000000;stroke-miterlimit:10;" d="M-33.3,359.8"/>
	<path style="fill:none;stroke:#000000;stroke-miterlimit:10;" d="M-33.3,487"/>
	<path style="fill:none;stroke:#000000;stroke-miterlimit:10;" d="M-40.3,483"/>
</g>
</svg>
